<svg xmlns="http://www.w3.org/2000/svg" width="24" height="92" viewBox="0 0 24 92">
  <g id="Path_1" data-name="Path 1" fill="#fff">
    <path d="M 12 90 C 6.485986709594727 90 2 85.51401519775391 2 80 L 2 12 C 2 6.485986709594727 6.485986709594727 2 12 2 C 17.51401329040527 2 22 6.485986709594727 22 12 L 22 80 C 22 85.51401519775391 17.51401329040527 90 12 90 Z" stroke="none"/>
    <path d="M 12 4 C 7.588785171508789 4 4 7.588783264160156 4 12 L 4 80 C 4 84.41121673583984 7.588785171508789 88 12 88 C 16.41121482849121 88 20 84.41121673583984 20 80 L 20 12 C 20 7.588783264160156 16.41121482849121 4 12 4 M 12 0 C 18.62741470336914 0 24 5.372581481933594 24 12 L 24 80 C 24 86.62741851806641 18.62741470336914 92 12 92 C 5.372585296630859 92 0 86.62741851806641 0 80 L 0 12 C 0 5.372581481933594 5.372585296630859 0 12 0 Z" stroke="none" fill="#fff"/>
  </g>
</svg>
